<svg width="65" height="55" viewBox="0 0 65 55" fill="none" xmlns="http://www.w3.org/2000/svg">
<line x1="43.5604" y1="17.5331" x2="44.4914" y2="44.5342" stroke="white" stroke-width="2" stroke-linecap="round"/>
<line x1="25.5265" y1="20.5681" x2="25.5265" y2="42.5681" stroke="white" stroke-width="2" stroke-linecap="round"/>
<path d="M12.5265 19.5681L11.5265 40.5681" stroke="white" stroke-width="2" stroke-linecap="round"/>
<path d="M25.5265 43.5681C18.7265 49.1681 13.6933 44.5682 11.5265 41.5681C-7.47302 45.0681 4.19319 12.068 8.52652 7.56796C8.69319 7.56796 9.52653 7.56796 14.0265 7.56796C15.6932 5.73462 20.1265 2.76796 24.5265 5.56796C28.0265 2.23464 36.9265 -2.53199 44.5265 5.06801C64.5265 -3.43188 68.5 50.5 59 52.5C47.5 50.5 47.0265 52.5 44.5265 53.5C24.5265 53.5 34.0265 53.0681 25.5265 43.5681ZM25.5265 43.5681C27.3599 46.2348 33.7266 50.2681 44.5265 45.0681C48.0265 47.0681 56.1265 49.5681 60.5265 43.5681V17.7823" stroke="white" stroke-width="2" stroke-linecap="round"/>
</svg>
