<svg width="56" height="68" viewBox="0 0 56 68" fill="none" xmlns="http://www.w3.org/2000/svg">
<path d="M38 38.7669C52 23.9669 54.8333 27.9336 54.5 31.7669C50.1 34.5669 44 48.9336 41.5 55.7669C33.5 73.3669 4 67.2668 2.5 55.7669L2 16.2669C4.8 13.067 7.5 14.9336 8.5 16.2668L10.5 31.7669L11 7.76685C13 3.36685 16.5 5.60018 18 7.26685L19.5 31.7669L20.5 2.76689C23.7 -0.433115 27.1667 1.43355 28.5 2.76689L30.5 31.7669V8.76693C33.7 5.56693 36.8333 7.43359 38 8.76693V38.7669ZM38 38.7669C34.6667 41.4336 28 46.2668 28 50.2668" stroke="white" stroke-width="2" stroke-linecap="round"/>
</svg>
