<svg width="148" height="273" viewBox="0 0 148 273" fill="none" xmlns="http://www.w3.org/2000/svg">
<path d="M136.988 1.76131L28.3596 270.626C28.3596 270.626 60.8482 202.458 85.4246 141.932C110.751 79.5587 136.988 1.76131 136.988 1.76131Z" fill="white"/>
<path d="M136.988 1.7614L28.3596 270.626C28.3596 270.626 52.3429 199.022 76.7093 138.411C101.819 75.9501 136.988 1.7614 136.988 1.7614Z" fill="white"/>
<path d="M0 76H25L66.5 181.5H41.5L0 76Z" fill="white"/>
<path d="M107.5 76H82.5L41 181.5H66L107.5 76Z" fill="white"/>
<path d="M124.999 198.11C120.599 218.91 92.8319 205.777 79.4985 196.61L66 212.11C79.4985 230.61 134.3 236.11 143.5 212.11C166 157.11 87 174.11 92.5 148.61C100.5 135.81 122.833 145.944 133 152.61L143.5 135.61C128.3 120.81 105.167 122.026 94.5 124.526L75.5 169.61C75.5 184.11 126.5 185.11 124.999 198.11Z" fill="white"/>
</svg>
