<svg width="545" height="574" viewBox="0 0 545 574" fill="none" xmlns="http://www.w3.org/2000/svg">
<path d="M543.594 333.031C550.965 535.445 440.97 561.526 270.023 574C118.934 574 286.749 466.114 286.749 333.031C286.749 199.947 118.934 92.0611 270.023 92.0611C423.96 86.3912 554.367 178.243 543.594 333.031Z" fill="white"/>
<path d="M0.623278 333.031C-6.74755 535.445 103.248 561.526 274.195 574C425.284 574 257.468 466.114 257.468 333.031C257.468 199.947 425.284 92.0611 274.195 92.0611C120.258 86.3912 -10.1495 178.243 0.623278 333.031Z" fill="white"/>
<ellipse cx="269.886" cy="327.113" rx="205.249" ry="103.759" fill="fuchsia"/>
<path d="M269.895 260.775L269.895 404.506C269.895 404.506 249.975 367.146 249.483 334.767C248.976 301.4 269.895 260.775 269.895 260.775Z" fill="white"/>
<path d="M269.895 260.775L269.895 404.506C269.895 404.506 289.814 367.146 290.306 334.767C290.813 301.4 269.895 260.775 269.895 260.775Z" fill="white"/>
<ellipse cx="526.129" cy="194.767" rx="18.1782" ry="194.767" fill="white"/>
<ellipse cx="18.1782" cy="194.767" rx="18.1782" ry="194.767" fill="white"/>
</svg>
