<svg width="49" height="70" viewBox="0 0 49 70" fill="none" xmlns="http://www.w3.org/2000/svg">
<path d="M21.2924 31.0595L14.7924 6.05957C15.4591 2.72624 19 -0.0568848 23.7924 4.05964L32.6217 31.9543L38.1218 4.95428C40.1218 2.95428 44.8218 0.554282 47.6218 6.95428L42.6218 37.9543M21.2924 31.0595C17.3812 17.9432 7.5 22.4432 13 39.4432M21.2924 31.0595C23.7924 39.4432 17 41.9543 13 39.4432M42.6218 37.9543C50.7924 61.0595 22.4217 82.7543 5.62175 57.9543C2.79239 53.7777 0.0924677 41.7594 1.29247 32.5594M42.6218 37.9543C32.9551 37.7876 18.7924 36.5595 17.6218 41.9543C17.0565 44.5595 21.3218 47.3543 32.1218 46.9543M1.29247 32.5594C0.792461 32.0594 9.33777 20.2265 13 39.4432M1.29247 32.5594C1.29247 47.7594 13.5333 43.4432 13 39.4432M32.1218 46.9543C28 48.9432 28.5 50.4432 28.5 53.4432M32.1218 46.9543C32.7479 46.7839 37.5 47.9432 36.5 52.9432" stroke="white" stroke-width="2" stroke-linecap="round"/>
</svg>
