<svg width="921" height="714" viewBox="0 0 921 714" fill="none" xmlns="http://www.w3.org/2000/svg">
<path d="M685 0C717 38 739 84 782 107C776.4 41.4 714.333 8.33333 685 0Z" fill="#DBFF00"/>
<path d="M821 192.5C806.5 163.5 724 124 724 74C743.454 105.426 781.323 110.477 806.821 156.675C801.939 147.164 789.773 73.6191 771.5 43C842.5 82.5 810 164.5 821 192.5Z" fill="#DBFF00"/>
<path d="M836.752 294.53C834.236 261.774 761.5 198.679 761.5 152.001C779.5 179.001 824.5 201.001 833.733 258.195C826.033 210.5 842 145.5 830 102.5C896.269 173.678 836.682 262.922 836.752 294.53C836.796 295.106 836.818 295.673 836.818 296.231C836.775 295.684 836.753 295.117 836.752 294.53Z" fill="#DBFF00"/>
<path d="M576 617.5C608.128 614.929 643.5 576.5 700.5 519C686.5 553 674.275 599.234 618 613C664.928 601.52 744.094 594.392 786 579C711 666 661 626.5 576 617.5Z" fill="#DBFF00"/>
<path d="M821.192 407.239C827.757 375.049 775.115 294.424 787.917 249.537C797.821 280.438 835.062 313.936 828.255 371.469C833.931 323.492 867.113 265.363 867.366 220.721C911.573 307.345 829.794 376.824 821.192 407.239C821.077 407.806 820.943 408.357 820.79 408.893C820.898 408.355 821.033 407.804 821.192 407.239Z" fill="#DBFF00"/>
<path d="M767.583 507.424C785.658 480.073 763.275 384.817 792 348C789.583 380.36 815.483 426.114 787.58 476.886C810.849 434.546 863.421 393.121 880.411 351.837C888.878 448.764 786.905 482.457 767.583 507.424C767.273 507.894 766.95 508.343 766.616 508.772C766.91 508.325 767.233 507.876 767.583 507.424Z" fill="#DBFF00"/>
<path d="M685 588.999C711 565.863 722.532 461 759 429.5C749.617 459.516 760.493 518.915 725.969 561.817C757.849 526.728 827.963 509.383 853.5 466.499C833 569.999 711 581.999 685 588.999Z" fill="#DBFF00"/>
<path d="M375.5 713.999L363 699.999C547 519.5 593 699.999 719.5 647.999C547.5 777.5 559.5 495.5 375.5 713.999Z" fill="#DBFF00"/>
<path d="M235.146 0C203.146 38 181.146 84 138.147 107C143.747 41.4 205.813 8.33333 235.146 0Z" fill="#DBFF00"/>
<path d="M99.1465 192.5C113.646 163.5 196.146 124 196.146 74C176.692 105.426 138.824 110.477 113.325 156.675C118.207 147.164 130.374 73.6191 148.646 43C77.6465 82.5 110.146 164.5 99.1465 192.5Z" fill="#DBFF00"/>
<path d="M83.3949 294.53C85.9106 261.774 158.646 198.679 158.646 152.001C140.646 179.001 95.6464 201.001 86.4136 258.195C94.113 210.5 78.1465 145.5 90.1465 102.5C23.8772 173.678 83.4646 262.922 83.3949 294.53C83.3506 295.106 83.3281 295.673 83.3281 296.231C83.3717 295.684 83.3936 295.117 83.3949 294.53Z" fill="#DBFF00"/>
<path d="M344.146 617.5C312.018 614.929 276.646 576.5 219.646 519C233.646 553 245.872 599.234 302.146 613C255.218 601.52 176.052 594.392 134.146 579C209.146 666 259.146 626.5 344.146 617.5Z" fill="#DBFF00"/>
<path d="M98.9542 407.239C92.3897 375.049 145.032 294.424 132.23 249.537C122.325 280.438 85.0843 313.936 91.8917 371.469C86.215 323.492 53.0336 265.363 52.7801 220.721C8.5735 307.345 90.3523 376.824 98.9542 407.239C99.0697 407.806 99.2035 408.357 99.3564 408.893C99.2484 408.355 99.1139 407.804 98.9542 407.239Z" fill="#DBFF00"/>
<path d="M152.564 507.424C134.488 480.073 156.872 384.817 128.147 348C130.564 380.36 104.663 426.114 132.566 476.886C109.298 434.546 56.7254 393.121 39.7354 351.837C31.2681 448.764 133.241 482.457 152.564 507.424C152.874 507.894 153.196 508.343 153.531 508.772C153.236 508.325 152.914 507.876 152.564 507.424Z" fill="#DBFF00"/>
<path d="M235.146 588.999C209.147 565.863 197.614 461 161.147 429.5C170.529 459.516 159.653 518.915 194.177 561.817C162.298 526.728 92.1839 509.383 66.6465 466.499C87.1465 569.999 209.146 581.999 235.146 588.999Z" fill="#DBFF00"/>
<path d="M544.646 713.999L557.146 699.999C373.146 519.5 327.146 699.999 200.646 647.999C372.646 777.5 360.646 495.5 544.646 713.999Z" fill="#DBFF00"/>
<path d="M528 557H393.048V535.931C411.867 535.931 426.476 510.317 431.429 497.511L432.667 168.46C424.067 168.46 409.143 192.628 346 240.963V211.218C384.629 192.38 434.73 123.223 454.952 91H488.381V497.511C494.324 527.255 517.27 535.518 528 535.931V557Z" fill="#DBFF00"/>
</svg>
