<svg width="333" height="407" viewBox="0 0 333 407" fill="none" xmlns="http://www.w3.org/2000/svg">
<path d="M103.223 328.32L170.405 313.385M103.223 328.32L110.932 311.251L135.162 306.47M103.223 328.32L135.162 395.532L202.345 378.462M170.405 313.385V299.516M170.405 313.385L202.345 378.462M170.405 299.516L180.318 298.449L190.23 313.385L202.345 286.713M170.405 299.516L135.162 306.47M202.345 286.713C204.914 297.737 212.036 320.853 219.966 325.12M202.345 286.713L135.162 297.382M202.345 286.713L216.662 280.312M219.966 325.12L202.345 378.462M219.966 325.12C224.739 324.053 233.843 321.919 232.081 321.919M135.162 297.382V306.47M135.162 297.382C129.876 298.221 114.604 251.501 107.628 228.037M216.662 280.312C218.865 292.047 226.795 315.945 232.081 321.919M216.662 280.312L257.412 268.577M232.081 321.919L247.5 361.393V383.797M247.5 383.797L305.872 369.928M247.5 383.797L257.412 403L315.784 388.064M305.872 369.928L315.784 388.064M305.872 369.928L309.176 345.39L277.236 280.312M315.784 388.064L329 345.39L293.757 272.844M277.236 280.312C276.489 280.51 275.754 280.636 275.034 280.7M277.236 280.312L293.757 272.844M293.757 272.844C293.023 272.133 290.453 268.362 286.047 258.975C277.236 245.32 289.718 244.751 297.061 246.173M257.412 268.577V241.906M257.412 268.577C259.784 273.172 266.408 281.461 275.034 280.7M257.412 241.906C264.02 224.836 316.224 213.314 309.176 265.376M257.412 241.906L197.939 133.087M309.176 265.376L298.162 263.243L297.061 246.173M309.176 265.376C315.784 265.021 327.678 260.256 322.392 244.04C318.76 236.721 309.05 222.633 299.264 224.836L298.162 213.101M297.061 246.173C294.124 239.772 284.505 230.811 269.527 246.173C267.691 251.507 266.223 263.456 275.034 268.577V280.7M298.162 213.101C287.883 210.612 265.782 208.194 259.615 218.435M298.162 213.101C305.211 174.695 263.653 138.066 241.993 124.553C234.437 121.706 228.689 120.983 224.372 121.725M259.615 218.435L265.122 231.238M259.615 218.435L253.007 216.302V193.898L214.459 152.291C211.383 141.455 210.565 124.098 224.372 121.725M197.939 133.087L214.459 110.683M197.939 133.087L97.7162 159.758M214.459 110.683L224.372 121.725M214.459 110.683L184.723 119.218M184.723 119.218V107.483M184.723 119.218C172.608 129.887 142.872 149.09 120.845 140.555M184.723 107.483C167.982 121.992 135.162 129.175 120.845 130.953M184.723 107.483C207.851 104.284 182.52 -0.268054 139.568 25.337M120.845 140.555L97.7162 159.758M120.845 140.555V130.953M97.7162 159.758L74.5878 180.028M97.7162 159.758C93.3108 159.758 102.489 205.277 107.628 228.037M74.5878 180.028H66.8784M74.5878 180.028C77.5248 188.563 80.0946 208.833 66.8784 221.636M66.8784 180.028L65.777 165.093C59.536 161.536 45.7324 156.984 40.4459 167.226M66.8784 180.028L65.777 213.101H40.4459M66.8784 221.636C72.3851 226.97 88.2446 235.718 107.628 228.037M66.8784 221.636C58.0676 225.903 45.5856 217.724 40.4459 213.101M40.4459 167.226C31.268 164.026 10.9297 159.545 3 167.226V213.101C8.13964 216.302 22.8243 220.783 40.4459 213.101M40.4459 167.226V213.101M120.845 130.953C96.6149 142.692 43.75 50.9424 93.3108 43.4744M93.3108 43.4744L139.568 25.337M93.3108 43.4744L84.5 22.1365L130.757 4L139.568 25.337" stroke="white" stroke-width="6" stroke-linecap="round"/>
</svg>
